# xmcd
#
# Track frame offsets:
#	150
#	15730
#	28102
#	41207
#	59377
#	80187
#	92327
#	113402
#	133837
#	143117
#	156065
#	166542
#
# Disc length: 2461
#
# Revision: 2
# Processed by: cddbd v1.5.1PL0 Copyright (c) Steve Scherf et al.
# Submitted via: cdripper 1,0,15,908
# Normalized: r1:TDELIM( - )
#
DISCID=94099b0c
DTITLE=Various Artist - Go Tell It On The Mountain
DYEAR=2004
DGENRE=Country
TTITLE0=Kenny Chesney - The Angel at the Top of My Tree
TTITLE1=Martina McBride - Silver Bells
TTITLE2=Alan Jackson - Honky Tonk Christmas
TTITLE3=Vince Gill - Have Yourself a Merry Little Christmas
TTITLE4=Amy Grant - Tennessee Christmas
TTITLE5=Dwight Yoakam - Santa Claus is Back in Town
TTITLE6=Lonestar - Little Drummer Boy
TTITLE7=Sara Evans - Go Tell It On the Mountain
TTITLE8=Sammy Kershaw - Winter Wonderland
TTITLE9=The Judds - Santa Claus is Comin' to Town
TTITLE10=Billy Gilman - Rockin Around the Christmas Tree
TTITLE11=Lila McCann - Christmas Time is Here Again
EXTD=YEAR: 2004
EXTT0=
EXTT1=
EXTT2=
EXTT3=
EXTT4=
EXTT5=
EXTT6=
EXTT7=
EXTT8=
EXTT9=
EXTT10=
EXTT11=
PLAYORDER=
